<svg xmlns="http://www.w3.org/2000/svg" xmlns:xlink="http://www.w3.org/1999/xlink" width="35" height="34" viewBox="0 0 35 34"><defs><path id="e9w7a" d="M685 4337a16 16 0 1 1 0 32 16 16 0 0 1 0-32zm-10 21.77h5.96c2.23 0 4.35-1.02 4.35-3.4 0-1.45-.76-2.55-2.26-2.96 1.07-.49 1.67-1.29 1.67-2.44 0-2.18-1.58-2.97-3.93-2.97H675zm2.47-9.8h2.77c.97 0 1.86.23 1.86 1.35 0 .98-.7 1.39-1.65 1.39h-2.98zm0 4.69h3.18c1.16 0 1.87.47 1.87 1.67 0 1.21-.85 1.54-1.92 1.54h-3.13zm17.36 1.17c.17-2.6-1.3-4.76-4.33-4.76a4.38 4.38 0 0 0-4.57 4.47c0 2.63 1.76 4.46 4.57 4.46a4.28 4.28 0 0 0 4.28-3.05h-2.16c-.15.53-1.05 1.3-2.03 1.3-1.36 0-2.12-.95-2.2-2.42zm-6.43-1.52c.03-.66.48-1.48 2.03-1.48 1.2 0 1.73.3 1.95 1.48zm4.76-5.52h-4.94v1.57h4.94z"/></defs><g><g transform="translate(-668 -4336)"><use fill="#0188f5" xlink:href="#e9w7a"/><use fill="#ebebeb" xlink:href="#e9w7a"/></g></g></svg>