<svg xmlns="http://www.w3.org/2000/svg" xmlns:xlink="http://www.w3.org/1999/xlink" width="34" height="36" viewBox="0 0 34 36"><defs><path id="qi1da" d="M396 4337a16 16 0 1 1-1.64 31.93c2.56-1.26 3.89-3.45 3.89-5.63 0-2.45-1.37-3.65-2.88-4.96l-1.23-1c-.37-.31-.89-.74-.89-1.52s.52-1.28.96-1.74c1.44-1.17 2.87-2.4 2.87-5.03 0-2.7-1.64-4.11-2.43-4.78h2.13l2.18-1.28h-7.04c-1.85 0-4.17.28-6.13 1.95a6.47 6.47 0 0 0-2.18 4.75 5.5 5.5 0 0 0 5.67 5.56c.35 0 .72-.03 1.1-.07-.17.43-.34.78-.34 1.39 0 1.1.54 1.77 1.02 2.4-1.54.11-4.41.29-6.53 1.64-.73.45-1.28.97-1.68 1.52A16 16 0 0 1 396 4337zm-3.77 23c2.6 1.92 3.72 2.87 3.72 4.68 0 1.99-1.42 3.5-4.1 3.78-2.64-.7-5.01-2.07-6.93-3.9a3.9 3.9 0 0 1-.02-.37c0-2.52 2.2-3.37 2.95-3.65 1.43-.5 3.28-.57 3.59-.57.34 0 .51 0 .79.03zm.99-6.73c-.55.57-1.47 1-2.33 1-2.94 0-4.28-3.94-4.28-6.32 0-.92.18-1.88.76-2.62.55-.71 1.5-1.17 2.4-1.17 2.83 0 4.3 3.97 4.3 6.52 0 .64-.07 1.77-.85 2.59zm8.69-2.27h2v-3h3v-2h-3v-3h-2v3h-3v2h3z"/></defs><g><g transform="translate(-379 -4336)"><use fill="#da4935" xlink:href="#qi1da"/><use fill="#ebebeb" xlink:href="#qi1da"/></g></g></svg>