<svg xmlns="http://www.w3.org/2000/svg" xmlns:xlink="http://www.w3.org/1999/xlink" width="35" height="34" viewBox="0 0 35 34"><defs><path id="z4y5a" d="M351 4337a16 16 0 1 1 0 32 16 16 0 0 1 0-32zm-8.52 7.46c-.31.3-.47.68-.47 1.1 0 .46.16.84.48 1.16.32.31.7.47 1.16.47.45 0 .83-.15 1.14-.46.32-.31.48-.69.48-1.13 0-.44-.16-.82-.48-1.13a1.6 1.6 0 0 0-1.16-.47c-.44 0-.83.15-1.15.46zM342 4360h3.27v-12H342zm5.73 0h3.26v-4.36c0-1.28.05-2.12.16-2.5a3.06 3.06 0 0 1 3.06-2.37c.58 0 1.06.13 1.46.38a2 2 0 0 1 .83 1.1c.16.49.24 1.47.24 2.94v4.8H360v-7.55a4 4 0 0 0-1.35-3.22 5.04 5.04 0 0 0-3.5-1.28c-.72 0-1.19.11-1.87.34-.69.24-1.43.72-2.28 1.31v-1.6h-3.27z"/></defs><g><g transform="translate(-334 -4336)"><use fill="#005a87" xlink:href="#z4y5a"/><use fill="#ebebeb" xlink:href="#z4y5a"/></g></g></svg>