<svg xmlns="http://www.w3.org/2000/svg" xmlns:xlink="http://www.w3.org/1999/xlink" width="53" height="59" viewBox="0 0 53 59"><defs><path id="6cd0a" d="M953.28 4734.95c11.2 6.09 15.05 19.57 8.58 30.1-2.28 3.7-8.18 7.4-15.06 10.28-10.09 3.26-27.92 9.46-27.92 9.46v-28.92s.56-9.83 2.4-12.85c6.48-10.54 20.8-14.15 32-8.07zm-22.88 17.25c0 6 5.17 10.85 11.54 10.85 6.38 0 11.54-4.86 11.54-10.85 0-6-5.16-10.86-11.54-10.86-6.37 0-11.54 4.86-11.54 10.86z"/></defs><g><g transform="translate(-917 -4727)"><use fill="#3aa0ef" xlink:href="#6cd0a"/><use fill="#9f9acf" xlink:href="#6cd0a"/></g></g></svg>