<svg xmlns="http://www.w3.org/2000/svg" xmlns:xlink="http://www.w3.org/1999/xlink" width="35" height="34" viewBox="0 0 35 34"><defs><path id="zzc3a" d="M485 4337a16 16 0 1 1 0 32 16 16 0 0 1 0-32zm9.9 10.2a6.9 6.9 0 0 1-2.12.64 4 4 0 0 0 1.62-2.23c-.71.46-1.5.8-2.35.98a3.55 3.55 0 0 0-2.7-1.28c-2.03 0-3.68 1.8-3.68 4.04 0 .32.03.62.1.92a10.22 10.22 0 0 1-7.62-4.22 4.31 4.31 0 0 0 1.14 5.4c-.6-.03-1.17-.2-1.67-.51v.05a3.97 3.97 0 0 0 2.96 3.96 3.41 3.41 0 0 1-1.67.07 3.76 3.76 0 0 0 3.45 2.8 7.02 7.02 0 0 1-5.46 1.68 9.82 9.82 0 0 0 5.66 1.81c6.79 0 10.5-6.15 10.5-11.5v-.51a7.93 7.93 0 0 0 1.84-2.1c.5-.8 0 0 0 0z"/></defs><g><g transform="translate(-468 -4336)"><use fill="#4e9edc" xlink:href="#zzc3a"/><use fill="#ebebeb" xlink:href="#zzc3a"/></g></g></svg>